<?xml version="1.0" encoding="UTF-8"?>
<svg id="_图层_1" data-name="图层 1" xmlns="http://www.w3.org/2000/svg" viewBox="0 0 896.555 240.256">
  <defs>
    <style>
      .cls-1 {
        stroke: #000;
        stroke-miterlimit: 10;
      }
    </style>
  </defs>
  <path d="M1.449,152.261c1.93,0,1.934-3,0-3s-1.934,3,0,3h0Z"/>
  <path d="M536.214,45.355c-3.25-2.966-7.754-3.491-11.612-1.328-3.352,1.878-6.784,5.913-7.271,9.76-1.177,9.297,11.457,14.271,18.382,9.637,7.876-5.27,6.447-16.39-1.065-21.305-7.255-4.747-17.393.655-17.594,9.332-.102,4.414,2.615,8.747,6.513,10.759,4.661,2.406,9.493,1.436,13.469-1.711,2.543-2.013,2.105-6.381,0-8.485-2.511-2.511-5.936-2.018-8.485,0,1.662-1.316-.021-.269.286-.393.227-.091.514.045.605.256-.228-.529-.767-.401-.318-.065-.711-.533.394-.613-.052-.214.052-.046-.206.63-.202.617-.084.325-.431-.087.309-.083-1.937-.009-1.053-.004-.204,1.118.924,1.223-.053.047.273.085.849.101-.594-.045-.135-.071.444-.025-.888-.222-.446-.29.044,3.233.137,4.301.281,3.203.029-.252.188-.447.478-.583,2.137-1.704-.303-.482-1.694-1.753,2.393,2.184,6.12,2.365,8.485,0,2.215-2.215,2.402-6.292,0-8.485h0Z"/>
  <rect class="cls-1" x="527.499" y="51.322" width="76.596" height="12.255"/>
  <rect class="cls-1" x="592.52" y="51.322" width="11.574" height="121.532"/>
  <rect class="cls-1" x="520.01" y="97.961" width="72.511" height="16"/>
  <rect class="cls-1" x="485.286" y="167.748" width="153.191" height="10.553"/>
  <rect class="cls-1" x="547.925" y="63.578" width="19.745" height="114.723"/>
  <circle class="cls-1" cx="598.903" cy="55.663" r="11.149"/>
  <path class="cls-1" d="M648.01,173.365c.613,5.282-3.625,4.248-9.532,4.936-5.602.653-10.894,1.926-10.894-4.936s4.572-12.426,10.213-12.426,9.421,5.609,10.213,12.426Z"/>
  <path class="cls-1" d="M497.293,174.106c0,7.332-5.442,4.188-10.894,4.085-10.905-.205-8.92-4.328-8.851-4.085,2.001,7.054,4.42-13.277,9.872-13.277s9.872,5.944,9.872,13.277Z"/>
  <path class="cls-1" d="M537.031,107.237c0,7.567-4.953,8.085-11.064,8.085s-11.064-.518-11.064-8.085,4.953-13.702,11.064-13.702,11.064,6.135,11.064,13.702Z"/>
  <rect class="cls-1" x="737.542" y="45.859" width="13.957" height="59.574" transform="translate(168.929 -402.609) rotate(33.921)"/>
  <rect class="cls-1" x="730.733" y="109.535" width="17.021" height="91.915"/>
  <rect class="cls-1" x="730.733" y="99.663" width="54.809" height="13.957"/>
  <rect class="cls-1" x="777.371" y="113.961" width="16.681" height="87.489"/>
  <rect class="cls-1" x="730.733" y="198.046" width="63.319" height="13.617"/>
  <rect class="cls-1" x="820.657" y="54.359" width="14.298" height="54.638" transform="translate(186.47 -448.06) rotate(33.921)"/>
  <rect class="cls-1" x="814.929" y="91.146" width="71.149" height="16.511"/>
  <rect class="cls-1" x="869.397" y="107.657" width="16.681" height="105.702"/>
  <rect class="cls-1" x="859.354" y="187.316" width="13.447" height="24.851" transform="translate(112.43 670.912) rotate(-45)"/>
  <rect class="cls-1" x="828.342" y="128.912" width="18.383" height="38.128" rx="9.191" ry="9.191" transform="translate(38.22 438.592) rotate(-30)"/>
  <rect class="cls-1" x="747.754" y="144.599" width="32.34" height="13.106"/>
  <ellipse class="cls-1" cx="729.031" cy="97.961" rx="13.277" ry="14.298"/>
  <ellipse class="cls-1" cx="786.393" cy="105.62" rx="10.723" ry="12.766"/>
  <circle class="cls-1" cx="738.988" cy="205.28" r="13.702"/>
  <circle class="cls-1" cx="783.499" cy="204.514" r="12.936"/>
  <ellipse class="cls-1" cx="760.691" cy="50.982" rx="12.936" ry="10.894"/>
  <ellipse class="cls-1" cx="748.265" cy="150.577" rx="5.957" ry="13.127"/>
  <ellipse class="cls-1" cx="775.329" cy="151.428" rx="4.766" ry="12.276"/>
  <circle class="cls-1" cx="843.85" cy="60.825" r="10.093"/>
  <ellipse class="cls-1" cx="831.999" cy="137.423" rx="16.148" ry="10.553"/>
  <circle class="cls-1" cx="856.666" cy="189.681" r="7.683"/>
  <ellipse class="cls-1" cx="885.842" cy="95.498" rx="10.213" ry="13.819"/>
  <path d="M643.578,171.801c5.569-4.493,8.782-10.864,11.772-17.218,3.67-7.797,7.002-15.765,9.964-23.858,5.521-15.083,9.127-30.684,13.63-46.075,4.561-15.587,10.64-30.276,20.701-43.169,4.776-6.121,10.03-11.98,15.515-17.473,5.366-5.374,11.408-9.93,19.076-11.252,7.709-1.329,15.925,1.059,21.172,6.993,6.059,6.854,5.735,16.782,5.662,25.361-.066,7.724,11.934,7.731,12,0,.143-16.883-3.001-33.926-19.987-41.576-16.133-7.267-33.197-.811-45.251,10.847-12.713,12.296-24.443,26.68-31.73,42.882-7.241,16.098-11.064,33.296-15.873,50.201-2.863,10.063-6.228,19.979-10.201,29.66-3.625,8.832-7.277,20.012-14.936,26.191-6.011,4.85,2.526,13.293,8.485,8.485h0Z"/>
  <path d="M641.368,168.226c-1.077-2.211-.064.806-.793.802.626.003,1.972-1.276,2.476-1.64,1.822-1.318,3.523-2.794,4.997-4.493,3.018-3.477,5.021-7.435,6.896-11.606,4.545-10.113,9.028-20.254,13.541-30.381,3.117-6.993-7.22-13.105-10.362-6.057-5.254,11.789-9.9,24.17-15.996,35.548-1.24,2.314-2.656,4.389-4.638,6.136-1.789,1.577-4.047,2.495-5.758,4.164-3.993,3.897-2.914,9.089-.725,13.583,3.381,6.942,13.733.865,10.362-6.057h0Z"/>
  <path d="M638.74,176.891c4.461-.557,7.769-1.89,11.184-4.852l-9.423-7.271c-.48.634-.96,1.268-1.44,1.902-1.56,2.06-.808,5.581.938,7.271,7.96,7.707,18.749.986,20.407-8.607,1.023-5.914.18-12.008,1.086-17.978.968-6.378,2.673-12.633,4.333-18.857,1.992-7.47-9.581-10.657-11.571-3.19-1.899,7.123-3.735,14.246-4.719,21.562-.466,3.461-.742,6.91-.759,10.403-.008,1.767.336,3.735-.029,5.463l-.377,1.626c-.99.927-.952,1.291.114,1.093l.938,7.271c.48-.634.96-1.268,1.44-1.902,4.336-5.727-4.602-11.454-9.423-7.271-.751.749-1.651,1.195-2.699,1.338-7.562.944-7.657,12.956,0,12h0Z"/>
  <path d="M761.132,49.595c-1.025-5.898,2.867-12.13,4.088-17.77,1.331-6.147,1.28-12.135.435-18.33-.442-3.235-4.549-4.937-7.381-4.191-3.473.915-4.627,4.185-4.191,7.381,1.73,12.674-6.698,23.58-4.523,36.1,1.319,7.594,12.886,4.375,11.571-3.19h0Z"/>
  <path d="M765.584,37.833c2.185-9.094,2.968-18.602-4.212-25.736-6.755-6.711-17.211-10.185-26.327-11.967-7.544-1.475-10.774,10.089-3.19,11.571,6.556,1.282,13.299,3.31,18.868,7.128,5.834,4,4.769,9.662,3.29,15.814-1.803,7.505,9.765,10.708,11.571,3.19h0Z"/>
  <path d="M766.636,56.652c3.646-2.229,6.362-5.746,7.426-9.905.777-3.036-.992-6.652-4.191-7.381-3.123-.711-6.548.937-7.381,4.191-.064.248-.141.493-.205.741-.308,1.189.448-.78.106-.185-.224.389-.783,1.076-.876,1.49.059-.262.794-.902.219-.313-.179.183-.349.375-.534.553-.149.143-1.01.897-.274.273.727-.617-.221.1-.347.177-2.677,1.636-3.932,5.448-2.153,8.209,1.733,2.687,5.344,3.904,8.209,2.153h0Z"/>
  <path d="M751.761,44.683c-3.124,6.62-6.117,12.726-10.267,18.729-4.593,6.644-7.745,14.613-11.371,21.812-3.466,6.88,6.883,12.962,10.362,6.057,3.621-7.187,6.73-15.219,11.371-21.812,4.207-5.975,7.141-12.104,10.267-18.729,3.277-6.945-7.065-13.044-10.362-6.057h0Z"/>
  <path d="M755.498,48.971l-4.079.406c-1.63.162-3.046.561-4.243,1.757-1.041,1.041-1.824,2.748-1.757,4.243.07,1.552.579,3.161,1.757,4.243,1.106,1.015,2.684,1.912,4.243,1.757l4.079-.406c1.63-.162,3.046-.561,4.243-1.757,1.041-1.041,1.824-2.748,1.757-4.243-.07-1.552-.579-3.161-1.757-4.243-1.106-1.015-2.684-1.912-4.243-1.757h0Z"/>
  <path d="M752.503,58.295c1.134,2.369,2.08,5.422,4.019,7.288,2.236,2.151,5.389,2.099,8.088.936,5.222-2.249,7.461-7.407,8.774-12.599l-11.571-3.19c-1.147,6.433-8.946,8.808-13.765,12.014-6.4,4.258-.398,14.656,6.057,10.362,7.663-5.098,17.463-8.997,19.28-19.185,1.333-7.475-9.648-10.796-11.571-3.19-.311,1.231-.813,2.453-1.115,3.667-.196.79-1.136.936.067.943l4.243,1.757c-.838-1.049-1.518-3.553-2.143-4.859-1.399-2.923-5.577-3.692-8.209-2.153-2.989,1.748-3.556,5.275-2.153,8.209h0Z"/>
  <path d="M632.731,162.714c-2.806,2.276-6.415,1.568-9.865,2.262-4.538.913-9.025,2.212-13.516,3.333l4.623,10.966c4.323-2.453,8.743-4.714,13.428-6.399,4.503-1.619,9.242-2.52,13.175-5.389,7.237-5.28,12.838-13.748,17.836-21.063,4.368-6.393-6.026-12.402-10.362-6.057-4.038,5.91-9.563,15.33-16.276,18.421-3.717,1.711-7.885,2.556-11.688,4.134-4.193,1.739-8.223,3.751-12.169,5.991-5.988,3.399-1.93,12.602,4.623,10.966,5.437-1.357,11.057-3.338,16.662-3.622,4.971-.252,8.184-1.952,12.014-5.059,5.999-4.867-2.537-13.311-8.485-8.485h0Z"/>
  <path d="M754.917,57.738c.166,2.151-2.928,5.682-4.124,7.425-1.8,2.622-3.811,5.078-5.976,7.407-4.351,4.68-9.24,8.629-14.665,11.992-6.551,4.062-.532,14.447,6.057,10.362,7.149-4.432,13.722-9.824,19.198-16.226,4.497-5.257,12.082-13.563,11.51-20.96-.592-7.65-12.597-7.714-12,0h0Z"/>
  <path d="M758.982,71.247c2.862-1.745,5.542-3.858,7.87-6.272,2.181-2.261,2.417-6.266,0-8.485-2.36-2.166-6.157-2.413-8.485,0-.941.975-1.932,1.882-2.973,2.75-.688.573.109.087.148-.109-.027.134-.61.443-.73.528-.615.432-1.246.835-1.887,1.226-2.679,1.634-3.931,5.45-2.153,8.209,1.734,2.69,5.342,3.901,8.209,2.153h0Z"/>
  <path d="M520.621,49.26c4.345.077,5.5-.785,3.464-2.586-.558-.83-1.052-1.696-1.483-2.598-.676-1.546-1.064-3.229-1.187-4.904-.057-.747-.058-1.495-.003-2.243-2.259.643-2.518,1.282-.779,1.915.445.328.624.739.538,1.232.651-.518,1.204-.409,1.66.326-2.682-3.607-10.039-4.235-10.966,1.433-1.035,6.324.52,12.494,5.778,16.543,4.94,3.804,13.563,5.121,18.494.479,4.174-3.929,4.273-13.474,3.206-18.656-1.414-6.863-9.745-10.474-15.028-14.164-4.111-2.872-10.692,1.961-8.814,6.776,5.064,12.984,17.298,19.262,30.501,21.337,15.93,2.504,31.768,3.735,47.524,7.478,7.508,1.784,10.712-9.784,3.19-11.571-13.338-3.169-26.826-5.271-40.459-6.66-10.176-1.037-24.838-2.628-29.185-13.774l-8.814,6.776c2.383,1.664,4.765,3.329,7.148,4.993.543.379,3.251,2.993,2.533,1.495-.674-1.406-.26,2.711-.264,2.899-.027,1.137-.16,2.261-.225,3.394-.188,3.29.323.822-.483.515-2.148-.82-3.984-1.892-3.53-4.668l-10.966,1.433c5.457,7.338,17.018,6.837,20.061-2.626,2.831-8.802-4.867-18.144-14.002-17.963-10.687.212-10.138,14.387-7.49,21.457,1.626,4.341,4.406,9.069,8.592,11.317,4.111,2.208,9.212.935,11.352-3.326,3.457-6.883-6.891-12.966-10.362-6.057h0Z"/>
  <path d="M511.747,167.127c-4.641-.419-9.242-.999-13.726-2.316-2.698-.792-10.988-3.312-10.511-7.057l-2.972,5.181c.17-.124,2.096-1.94,1.693-1.42-1.048,1.352-1.939,1.833-3.58,2.519l-1.7.539c-3.238.539-2.322,1.29,2.749,2.255.828-1.071,1.028-4.425,1.473-5.753,2.46-7.339-9.125-10.487-11.571-3.19-1.698,5.066-3.654,12.356.509,16.765,3.922,4.154,10.386,1.858,14.822-.292,4.672-2.265,8.59-6.274,9.201-11.62.56-4.904-1.882-9.797-6.482-11.795-4.282-1.86-11.074-1.069-14.383,2.569-3.974,4.368-1.167,10.917,2.337,14.575,8.053,8.404,21.18,10.052,32.143,11.041,7.689.694,7.642-11.31,0-12h0Z"/>
  <path d="M806.5,97.244c-.27.389-.472.781-.675,1.21-1.228,2.599.904-2.264,4.307-1.131l2.648,1.543-.253-.222,1.543,2.648.145.82-.819,3.028c1.296-2.939,3.228-5.101,6.136-6.412l-3.028.819.279-.012-4.243-1.757c-.689-.53-1.021-1.176-.994-1.938l.037.592c.012.396,0,.791-.039,1.186.061-.517.046-.561-.044-.134-.067.29-.152.574-.254.854.19-.427.189-.453,0-.08-.136.264-.288.519-.456.764.343-.425.278-.374-.196.155-2.231,2.35-2.333,6.152,0,8.485,2.252,2.252,6.246,2.358,8.485,0,3.648-3.843,5.229-9.091,4.12-14.297-.703-3.298-3.169-5.814-6.695-5.818-2.829-.004-5.593,2.285-7.636,4.017-3.448,2.922-7.756,8.134-6.368,12.917,1.079,3.716,5.207,5.431,8.766,4.45,1.521-.419,2.824-1.38,3.788-2.595.762-.96,1.12-2.046,1.808-3.036,1.85-2.663.489-6.664-2.153-8.209-2.985-1.746-6.355-.516-8.209,2.153h0Z"/>
  <path d="M827.423,79.503c-4.687,3.29-7.612,8.792-4.533,14.325,3.176,5.706,9.504,6.757,15.493,6.08,6.173-.698,8.781-10.232,1.595-11.786-1.075-.232-1.645-.422-1.321-1.638l-11.786-1.595c1.146,13.255,15.839,13.949,26.238,14.205,6.845.168,13.863.798,20.701.473,4.66-.222,9.497-1.668,11.623-6.212,3.252-6.954-7.09-13.054-10.362-6.057.961-.105.788-.024-.519.241l-.742.028c-1.663.097-3.395-.053-5.055-.093-3.912-.095-7.823-.19-11.735-.285-1.772-.043-17.897.615-18.149-2.3-.557-6.438-9.942-8.508-11.786-1.595-1.924,7.211,2.256,14.789,9.702,16.399l1.595-11.786c-1.13.159-2.266.256-3.407.293-1.673-.697-2.171-.142-1.496,1.664,6.274-4.404.284-14.812-6.057-10.362h0Z"/>
  <path d="M823.033,142.658c1.581,2.4,3.564,4.8,4.804,7.393l-.605-4.623-.06.353,4.191-4.191c1.001-.349,1.456.568.511-.146.103.078.085-.172-.231-.245-.698-.159.193-.533-.112.297l-1.543,2.648c-1.935.609-2.228.866-.877.771-.313-.112-.088-.062.676.149.749.2,1.417.507,2.056.997,1.117.855,1.687,1.92,2.019,3.174,1.975,7.458,13.554,4.295,11.571-3.19-1.194-4.509-4.15-8.403-8.189-10.756-3.883-2.262-9.679-3.541-13.791-1.212-10.544,5.973,1.182,22.543,11.099,19.086,1.852-.646,3.836-2.091,4.191-4.191.809-4.798-2.853-8.58-5.349-12.37-1.781-2.703-5.306-3.851-8.209-2.153-2.686,1.571-3.943,5.491-2.153,8.209h0Z"/>
  <path d="M876.739,198.134c-5.133-6.868-11.723-13.595-19.783-16.949-7.266-3.024-16.821,1.741-13.859,10.643,1.251,3.761,4.415,6.165,8.053,7.396,2.057.696,4.254.781,6.049,2.112,1.586,1.176,2.714,3.048,3.769,4.674,2.617,4.033,5.442,8.307,6.697,12.987,1.291,4.812.747,10.201.787,15.141.028,3.545,3.87,7.262,7.595,5.786,4.651-1.843,6.971-5.174,7.61-10.128.339-2.629.168-5.281.118-7.926-.03-1.6-.06-3.199-.091-4.799l-.036-1.919c.36-2.35-.002-2.544-1.087-.581l-8.814-3.586c1.397,5.241.658,10.126-2.13,14.771-3.984,6.638,6.387,12.678,10.362,6.057,4.41-7.347,5.544-15.747,3.34-24.018-1.069-4.011-5.384-5.197-8.814-3.586-4.743,2.228-4.925,7.308-4.838,11.902.054,2.879.121,5.758.163,8.637.014.966-.136,2.113.025,3.068.275,1.63-1.281,1.441,1.003.536l7.595,5.786c-.056-6.947.432-14.145-2.002-20.781-2.233-6.087-5.794-12.037-9.774-17.142-1.846-2.367-3.959-4.514-6.601-6.001-1.373-.773-2.923-1.265-4.417-1.723l-1.671-.393c-2.439-1.229-3.823.082-4.151,3.935.447.705,2.985,1.557,3.717,2.027,1.162.745,2.283,1.542,3.358,2.406,2.781,2.237,5.329,4.866,7.466,7.724,4.569,6.114,14.991.138,10.362-6.057h0Z"/>
  <path d="M733.031,213.152c7.721,0,7.734-12,0-12s-7.734,12,0,12h0Z"/>
  <path d="M849.064,55.48c.064.139,1.27-2.724,1.777-3.666,1.038-1.929,2.174-3.813,3.341-5.666,2.357-3.743,4.92-7.356,7.741-10.764,5.611-6.781,12.011-12.944,19.072-18.201,5.056-3.765,2.399-13.159-4.623-10.966-5.641,1.761-10.462,5.011-13.9,9.864-3.723,5.255-4.108,11.698-6.704,17.433-5.853,12.93-13.988,26.135-22.928,37.144-4.827,5.944,3.613,14.485,8.485,8.485,8.439-10.392,15.141-21.864,21.615-33.544,3.014-5.438,5.279-10.755,6.94-16.742,1.484-5.347,4.174-9.349,9.682-11.068l-4.623-10.966c-9.47,7.051-17.834,15.113-25.002,24.507-6.09,7.98-16.042,19.749-11.233,30.21,3.222,7.008,13.568.919,10.362-6.057h0Z"/>
</svg>